<svg width="50" height="50" viewBox="0 0 50 50" fill="none" xmlns="http://www.w3.org/2000/svg">
<path d="M25.4955 0.000337345C22.7727 0.0113721 20.0816 0.23648 17.7508 0.57635L18.8315 4.68568C23.2706 3.7389 27.911 4.04346 32.5727 4.69671L33.399 0.730836C30.9623 0.198962 28.2183 -0.0095939 25.4955 0.000337345ZM16.1298 1.79679C15.0386 2.0859 13.9685 2.42908 12.9514 2.82412C12.0827 3.16068 11.5424 3.88346 10.9279 4.82472C10.3134 5.76488 9.67771 6.96766 9.03144 8.35914C7.7283 11.1399 6.36901 14.66 5.12414 18.1359C3.92377 21.4905 2.83782 24.7788 2.02946 27.2947C2.67255 26.7651 3.46714 26.423 4.31577 26.445C5.04998 24.194 5.94205 21.5346 6.91145 18.8311C8.14361 15.3883 9.4976 11.9013 10.7478 9.23088C11.3728 7.88465 11.9767 6.74697 12.5065 5.94474C13.0362 5.1381 13.5553 4.70665 13.6083 4.68458C14.5724 4.31271 15.5789 3.9927 16.6172 3.72235L16.1298 1.79679ZM35.0094 2.37391L34.5962 4.3414C35.7934 4.78058 36.9271 5.31356 37.9865 5.94033C38.2938 6.11909 38.8871 6.78007 39.491 7.81844C40.0843 8.8557 40.7305 10.235 41.3662 11.8351C42.6587 15.0241 43.9513 19.0739 45.1061 23.0353C45.4345 24.1829 45.763 25.3195 46.0702 26.423C46.8436 26.5333 47.5641 26.9195 48.1362 27.4713C48.2315 27.5596 48.3163 27.6478 48.401 27.7471C47.9455 26.0588 47.4581 24.2712 46.9284 22.4615C45.7736 18.4559 44.4598 14.362 43.1249 11.0626C42.468 9.40744 41.79 7.96189 41.1225 6.7911C40.4445 5.62584 39.7982 4.73092 38.94 4.2167C37.7005 3.484 36.3867 2.87268 35.0094 2.37391ZM31.598 19.5483L18.217 19.6697L18.164 19.6808C14.9538 20.0339 12.5065 23.0464 12.0509 26.9637C12.6972 26.9968 13.3329 27.0299 13.9579 27.052C14.3605 23.9843 16.2252 21.8987 18.3547 21.656L31.4179 21.5346C33.0706 21.8215 34.8399 23.5871 35.2955 26.9306C35.9206 26.8975 36.5562 26.8754 37.2025 26.8423C36.6834 22.7043 34.3949 20.0008 31.6721 19.5594L31.598 19.5483ZM45.5723 28.3872C42.7647 28.5416 40.0948 28.6961 37.5204 28.8175C39.1943 35.5487 39.1201 42.3461 39.1096 49.0331C42.1926 48.7242 45.3604 48.36 48.6447 47.9517C48.7083 47.9407 48.8778 47.8745 49.1215 47.389C49.3651 46.9145 49.5982 46.131 49.7465 45.1599C50.0538 43.2178 50.0856 40.5805 49.8207 37.9653C49.5452 35.3611 48.9625 32.779 48.1574 30.9693C47.7548 30.0644 47.2992 29.3582 46.8542 28.9389C46.3986 28.5196 46.0172 28.3651 45.5723 28.3872ZM4.15791 28.4313C3.79664 28.4423 3.48198 28.5968 3.10693 28.961C2.67785 29.3693 2.22863 30.0755 1.83663 30.9803C1.05369 32.8011 0.494296 35.4163 0.215657 38.0646C-0.0629809 40.7129 -0.0672188 43.4054 0.177517 45.4027C0.299355 46.3958 0.490058 47.2234 0.694534 47.72C0.90007 48.2276 1.07276 48.2607 0.949864 48.2386C4.16745 48.8014 7.30134 49.2097 10.3981 49.4966C9.80484 43.0744 10.0273 36.277 11.6589 28.9279C9.31749 28.8175 6.87967 28.652 4.31683 28.4423C4.2628 28.4423 4.20983 28.4313 4.15791 28.4313ZM35.5709 28.9058C28.1123 29.2368 21.2894 29.3582 13.5871 29.0272C11.9026 36.4204 11.6907 43.1847 12.3264 49.6621C20.569 50.28 28.5997 50.0042 37.2025 49.2097C37.2131 42.3019 37.2873 35.4825 35.5709 28.9058Z" fill="white"/>
</svg>
